<svg xmlns="http://www.w3.org/2000/svg" xmlns:xlink="http://www.w3.org/1999/xlink" aria-hidden="true" role="img" class="iconify iconify--logos" width="31.88" height="32" preserveAspectRatio="xMidYMid meet" viewBox="0 0 256 257"><defs><linearGradient id="IconifyId1813088fe1fbc01fb466" x1="-.828%" x2="100.828%" y1="100.828%" y2="-.828%"><stop offset="0%" stop-color="#41D1FF"></stop><stop offset="100%" stop-color="#BD34FE"></stop></linearGradient><linearGradient id="IconifyId1813088fe1fbc01fb467" x1="-.828%" x2="100.828%" y1="100.828%" y2="-.828%"><stop offset="0%" stop-color="#FFEA83"></stop><stop offset="8.333%" stop-color="#FFDD35"></stop><stop offset="100%" stop-color="#FFA800"></stop></linearGradient></defs><path fill="url(#IconifyId1813088fe1fbc01fb466)" d="M255.153 37.441L132.71 253.468a4.14 4.14 0 0 1-7.61 0L.847 37.441a4.14 4.14 0 0 1 3.805-6.035l123.243 19.568l123.244-19.568a4.14 4.14 0 0 1 3.804 6.035Z"></path><path fill="url(#IconifyId1813088fe1fbc01fb467)" d="M255.153 37.441L132.71 205.095a4.14 4.14 0 0 1-7.61 0L.847 37.441a4.14 4.14 0 0 1 3.805-6.035l123.243 19.568l123.244-19.568a4.14 4.14 0 0 1 3.804 6.035Z"></path></svg>